<svg width="1920" height="60" viewBox="0 0 1920 60" fill="none" xmlns="http://www.w3.org/2000/svg">
  <path 
    d="M 0 30 
       c 106 -25, 213 -25, 320 0 s 213 25, 320 0 
       c 106 -25, 213 -25, 320 0 s 213 25, 320 0 
       c 106 -25, 213 -25, 320 0 s 213 25, 320 0"
    stroke="#BCA474" 
    stroke-width="2"
    stroke-linecap="round"
  />

  <defs>
    <g id="leafClusterRight" stroke="#BCA474" stroke-width="1.5" fill="none" stroke-linecap="round" stroke-linejoin="round">
      <path d="M0 0 L15 0" /> 
      <path d="M5 -5 L0 0 L5 5" /> 
      <path d="M10 -5 L5 0 L10 5" /> 
      <path d="M15 -5 L10 0 L15 5" /> 
    </g>

    <g id="leafClusterLeft" stroke="#BCA474" stroke-width="1.5" fill="none" stroke-linecap="round" stroke-linejoin="round">
      <path d="M0 0 L-15 0" /> 
      <path d="M-5 -5 L0 0 L-5 5" /> 
      <path d="M-10 -5 L-5 0 L-10 5" /> 
      <path d="M-15 -5 L-10 0 L-15 5" /> 
    </g>

    <g id="flower" fill="#BCA474" stroke="none">
      <circle cx="0" cy="0" r="2"/>
      <circle cx="0" cy="-5" r="2"/>
      <circle cx="4.33" cy="-2.5" r="2"/>
      <circle cx="4.33" cy="2.5" r="2"/>
      <circle cx="0" cy="5" r="2"/>
      <circle cx="-4.33" cy="2.5" r="2"/>
      <circle cx="-4.33" cy="-2.5" r="2"/>
    </g>
  </defs>

  <use href="#leafClusterRight" transform="translate(150, 20) rotate(10)" />
  <use href="#leafClusterLeft" transform="translate(300, 40) rotate(-10)" />
  <use href="#flower" transform="translate(450, 28)" />

  <use href="#leafClusterRight" transform="translate(790, 20) rotate(10)" />
  <use href="#leafClusterLeft" transform="translate(940, 40) rotate(-10)" />
  <use href="#flower" transform="translate(1090, 28)" />

  <use href="#leafClusterRight" transform="translate(1430, 20) rotate(10)" />
  <use href="#leafClusterLeft" transform="translate(1580, 40) rotate(-10)" />
  <use href="#flower" transform="translate(1730, 28)" />
</svg>